# xmcd
#
# Track frame offsets:
#	150
#	44067
#	69174
#	114754
#	153876
#	207081
#
# Disc length: 3177 seconds
#
# Revision: 1
# Processed by: cddbd v1.5.2PL0 Copyright (c) Steve Scherf et al.
# Submitted via: audiograbber 1.83.01
#
DISCID=440c6706
DTITLE=Dire Straits - Live in Munich 91
DYEAR=1991
DGENRE=Rock
TTITLE0=Calling Elvis
TTITLE1=Walk of Life
TTITLE2=Planet of New Orleans
TTITLE3=Private Investigation
TTITLE4=Sultans of Swing
TTITLE5=On Every Street
EXTD=
EXTT0=
EXTT1=
EXTT2=
EXTT3=
EXTT4=
EXTT5=
PLAYORDER=
